<svg xmlns="http://www.w3.org/2000/svg" width="805" height="600"><rect width="805" height="600" x="0" y="0" fill="#FFFFFF" id="backgorund"/><g transform="translate(402.5,300)" id="viz"><path fill="#1f77b4" display="" d="M0.9999920729479259,-142.9965035091909A143,143,0,1,1,-117.79545011265719,81.07547059842754L-59.44056136856898,41.509874297441385A72.5,72.5,0,1,0,0.9999920729479103,-72.49310322957655Z"><title>Arábica</title></path><path fill="#ff7f0e" display="" d="M-118.91781534626377,79.42010572438137A143,143,0,0,1,-0.9999920729478798,-142.9965035091909L-0.9999920729479354,-72.49310322957655A72.5,72.5,0,0,0,-60.56292660217553,39.854509423395236Z"><title>Robusta</title></path><path fill="#1f77b4" display="" d="M0.9999920729479191,-215.49767983867955A215.5,215.5,0,0,1,45.34901828538724,-210.6744325744147L30.193359742168482,-141.82158167035087A145,145,0,0,0,0.9999920729479153,-144.99655173780528Z"><title> América</title></path><path fill="#1f77b4" display="" d="M47.30224391336337,-210.24449510215643A215.5,215.5,0,0,1,148.92362754614723,155.76265007535156L100.44003990262011,104.57914889862167A145,145,0,0,0,32.146585370144614,-141.39164419809256Z"><title>América</title></path><path fill="#1f77b4" display="" d="M147.47164807230916,157.13803809019953A215.5,215.5,0,0,1,-67.86109325415717,204.53635868067707L-45.34997517523527,137.72574106391855A145,145,0,0,0,98.98806042878203,105.95453691346962Z"><title>África</title></path><path fill="#1f77b4" display="" d="M-69.75638457233066,203.89776068264482A215.5,215.5,0,0,1,-177.80387611400778,121.7621929780939L-119.45086802726452,82.19787179442686A145,145,0,0,0,-47.245266493408764,137.08714306588632Z"><title>Asia</title></path><path fill="#ff7f0e" display="" d="M-178.9262413476143,120.10682810404776A215.5,215.5,0,0,1,-199.82219252343018,80.69288305129025L-134.32828579689655,54.59772554664961A145,145,0,0,0,-120.57323326087105,80.54250692038075Z"><title>América</title></path><path fill="#ff7f0e" display="" d="M-200.56246296590112,78.83494433975038A215.5,215.5,0,0,1,-190.86320041524792,-100.05742714685854L-128.57460459109353,-67.03410366555187A145,145,0,0,0,-135.0685562393675,52.73978683510979Z"><title>África</title></path><path fill="#ff7f0e" display="" d="M-189.92639096004456,-101.82443722845858A215.5,215.5,0,0,1,-0.9999920729479456,-215.49767983867955L-0.9999920729479007,-144.99655173780528A145,145,0,0,0,-127.63779513589019,-68.80111374715185Z"><title>Asia</title></path><path fill="#1f77b4" display="" d="M0.9999920729479248,-287.99826391118063A288,288,0,0,1,60.934500759009154,-281.47999328060655L45.77896375221293,-212.62769452207672A217.5,217.5,0,0,0,0.9999920729479188,-217.49770117372285Z"><title>Bolivia</title></path><path fill="#1f77b4" display="" d="M62.88772638698529,-281.0500558083483A288,288,0,0,1,120.01976405930827,-261.80003100677425L90.41734611198406,-197.8154531932874A217.5,217.5,0,0,0,47.73218938018906,-212.19775704981842Z"><title>Colombia</title></path><path fill="#1f77b4" display="" d="M121.83490050985492,-260.96025946061934A288,288,0,0,1,173.4930365845812,-229.87859025290103L130.82791385922135,-173.75358112926523A217.5,217.5,0,0,0,92.2324825625307,-196.97568164713246Z"><title>Costa Rica</title></path><path fill="#1f77b4" display="" d="M175.08521009465008,-228.66825141700858A288,288,0,0,1,218.85396754281982,-187.20828211050485L165.1211137591841,-141.5671847248739A217.5,217.5,0,0,0,132.42008736929026,-172.54324229337274Z"><title>Ecuador</title></path><path fill="#1f77b4" display="" d="M220.14872984865386,-185.68397008364622A288,288,0,0,1,253.98153021747078,-135.78432276368278L191.69343389870437,-102.76126410337245A217.5,217.5,0,0,0,166.41587606501818,-140.04287269801526Z"><title>El Salvador</title></path><path fill="#1f77b4" display="" d="M254.91833967267414,-134.01731268208272A288,288,0,0,1,277.2331988193492,-78.01123939786642L209.3023821210707,-59.15034098333924A217.5,217.5,0,0,0,192.63024335390773,-100.9942540217724Z"><title>Guatemala</title></path><path fill="#1f77b4" display="" d="M277.76825125498544,-76.08415468904992A288,288,0,0,1,287.52175116700465,-16.59043718107103L217.1245835783456,-12.77361365980733A217.5,217.5,0,0,0,209.837434556707,-57.223256274522775Z"><title>Jamaica</title></path><path fill="#1f77b4" display="" d="M287.6300281258516,-14.59338618422157A288,288,0,0,1,284.3661059875655,45.60611543936466L214.79428082413935,34.200393641605274A217.5,217.5,0,0,0,217.23286053719255,-10.776562662957863Z"><title>Nicaragua</title></path><path fill="#1f77b4" display="" d="M284.0425445593686,47.579752839197205A288,288,0,0,1,267.91381774237465,105.67017678941238L202.4204362252932,79.57522854734384A217.5,217.5,0,0,0,214.47071939594247,36.174031041437814Z"><title>Panamá</title></path><path fill="#1f77b4" display="" d="M267.1735472999037,107.52811550095227A288,288,0,0,1,238.93417714437206,160.7932181167534L180.58163700270865,121.2292142077229A217.5,217.5,0,0,0,201.68016578282226,81.43316725888371Z"><title>Perú</title></path><path fill="#1f77b4" display="" d="M237.8118119107655,162.44858299079957A288,288,0,0,1,198.78223997936323,208.39774727378133L150.29904113595174,157.21465654834313A217.5,217.5,0,0,0,179.4592717691021,122.88457908176908Z"><title>Venezuela</title></path><path fill="#1f77b4" display="" d="M197.33026050552525,209.77313528862925A288,288,0,0,1,149.33546620351112,246.25782938574764L112.98862915106415,185.8489162803036A217.5,217.5,0,0,0,148.84706166211373,158.59004456319101Z"><title>Etiopía</title></path><path fill="#1f77b4" display="" d="M147.6217654358789,247.28892892645712A288,288,0,0,1,92.90593200243244,272.60316909155586L70.39499444491452,205.7930872432319A217.5,217.5,0,0,0,111.27492838343194,186.88001582101305Z"><title>Kenia</title></path><path fill="#1f77b4" display="" d="M91.01064068425893,273.2417670895881A288,288,0,0,1,32.132219678447065,286.2018875873044L24.50976803693763,216.11460216925533A217.5,217.5,0,0,0,68.49970312674104,206.43168524126412Z"><title>Mozambique</title></path><path fill="#1f77b4" display="" d="M30.143959525305092,286.4181239100221A288,288,0,0,1,-30.143959525305316,286.4181239100221L-22.52150788379583,216.33083849197303A217.5,217.5,0,0,0,22.52150788379566,216.33083849197305Z"><title>Tanzania</title></path><path fill="#1f77b4" display="" d="M-32.132219678447285,286.2018875873043A288,288,0,0,1,-91.01064068425914,273.24176708958805L-68.4997031267412,206.43168524126406A217.5,217.5,0,0,0,-24.5097680369378,216.11460216925533Z"><title>Zambia</title></path><path fill="#1f77b4" display="" d="M-92.90593200243252,272.60316909155586A288,288,0,0,1,-147.62176543587896,247.2889289264571L-111.27492838343201,186.88001582101305A217.5,217.5,0,0,0,-70.39499444491459,205.79308724323187Z"><title>India</title></path><path fill="#1f77b4" display="" d="M-149.33546620351117,246.25782938574758A288,288,0,0,1,-197.3302605055253,209.7731352886292L-148.8470616621138,158.59004456319096A217.5,217.5,0,0,0,-112.98862915106415,185.8489162803036Z"><title>Indonesia</title></path><path fill="#1f77b4" display="" d="M-198.7822399793634,208.39774727378122A288,288,0,0,1,-237.81181191076553,162.44858299079948L-179.45927176910214,122.88457908176898A217.5,217.5,0,0,0,-150.29904113595182,157.21465654834304Z"><title>Yemen</title></path><path fill="#ff7f0e" display="" d="M-238.93417714437214,160.7932181167533A288,288,0,0,1,-267.1735472999037,107.52811550095217L-201.6801657828223,81.4331672588836A217.5,217.5,0,0,0,-180.58163700270865,121.2292142077229Z"><title>Brasil</title></path><path fill="#ff7f0e" display="" d="M-267.9138177423747,105.6701767894123A288,288,0,0,1,-284.04254455936865,47.579752839197106L-214.4707193959425,36.1740310414377A217.5,217.5,0,0,0,-202.4204362252932,79.57522854734381Z"><title>Angola</title></path><path fill="#ff7f0e" display="" d="M-284.3661059875655,45.60611543936456A288,288,0,0,1,-287.6300281258516,-14.593386184221657L-217.23286053719252,-10.776562662957978A217.5,217.5,0,0,0,-214.79428082413938,34.200393641605245Z"><title>Camerún</title></path><path fill="#ff7f0e" display="" d="M-287.52175116700465,-16.590437181071128A288,288,0,0,1,-277.7682512549854,-76.08415468905002L-209.83743455670697,-57.22325627452289A217.5,217.5,0,0,0,-217.1245835783456,-12.773613659807351Z"><title>Costa de Marfil</title></path><path fill="#ff7f0e" display="" d="M-277.2331988193491,-78.0112393978665A288,288,0,0,1,-254.91833967267408,-134.01731268208283L-192.63024335390764,-100.99425402177252A217.5,217.5,0,0,0,-209.3023821210707,-59.15034098333927Z"><title>Uganda</title></path><path fill="#ff7f0e" display="" d="M-253.98153021747075,-135.78432276368287A288,288,0,0,1,-220.1487298486538,-185.6839700836463L-166.4158760650181,-140.04287269801537A217.5,217.5,0,0,0,-191.69343389870434,-102.76126410337247Z"><title>India</title></path><path fill="#ff7f0e" display="" d="M-218.85396754281976,-187.20828211050494A288,288,0,0,1,-175.08521009464994,-228.66825141700866L-132.42008736929017,-172.5432422933728A217.5,217.5,0,0,0,-165.1211137591841,-141.56718472487393Z"><title>Java</title></path><path fill="#ff7f0e" display="" d="M-173.49303658458106,-229.87859025290118A288,288,0,0,1,-121.83490050985478,-260.9602594606194L-92.23248256253065,-196.97568164713246A217.5,217.5,0,0,0,-130.82791385922124,-173.75358112926534Z"><title>Sri Lanka</title></path><path fill="#ff7f0e" display="" d="M-120.01976405930813,-261.80003100677436A288,288,0,0,1,-62.88772638698508,-281.0500558083483L-47.73218938018895,-212.19775704981845A217.5,217.5,0,0,0,-90.41734611198392,-197.81545319328748Z"><title>Sumatra</title></path><path fill="#ff7f0e" display="" d="M-60.93450075900895,-281.4799932806066A288,288,0,0,1,-0.9999920729477043,-287.99826391118063L-0.9999920729478006,-217.49770117372285A217.5,217.5,0,0,0,-45.778963752212725,-212.62769452207678Z"><title>Vietnam</title></path></g><g id="labels" transform="translate(402.5,300)" text-anchor="middle"><text transform="rotate(90) translate(36.25,0) rotate(180)"><tspan x="0" y="4" style="font-family: Arial, sans-serif; font-size: 10px; fill: black; font-weight: normal; font-style: italic;"/></text><text transform="rotate(27.93103448275862) translate(108.75,0) rotate(0)"><tspan x="0" y="4" style="font-family: Arial, sans-serif; font-size: 10px; fill: black; font-weight: normal; font-style: italic;">Arábica</tspan></text><text transform="rotate(207.9310344827586) translate(108.75,0) rotate(180)"><tspan x="0" y="4" style="font-family: Arial, sans-serif; font-size: 10px; fill: black; font-weight: normal; font-style: italic;">Robusta</tspan></text><text transform="rotate(-83.79310344827586) translate(181.25,0) rotate(0)"><tspan x="0" y="4" style="font-family: Arial, sans-serif; font-size: 10px; fill: black; font-weight: normal; font-style: italic;"> América</tspan></text><text transform="rotate(-15.517241379310349) translate(181.25,0) rotate(0)"><tspan x="0" y="4" style="font-family: Arial, sans-serif; font-size: 10px; fill: black; font-weight: normal; font-style: italic;">América</tspan></text><text transform="rotate(77.58620689655174) translate(181.25,0) rotate(0)"><tspan x="0" y="4" style="font-family: Arial, sans-serif; font-size: 10px; fill: black; font-weight: normal; font-style: italic;">África</tspan></text><text transform="rotate(127.24137931034485) translate(181.25,0) rotate(180)"><tspan x="0" y="4" style="font-family: Arial, sans-serif; font-size: 10px; fill: black; font-weight: normal; font-style: italic;">Asia</tspan></text><text transform="rotate(152.06896551724134) translate(181.25,0) rotate(180)"><tspan x="0" y="4" style="font-family: Arial, sans-serif; font-size: 10px; fill: black; font-weight: normal; font-style: italic;">América</tspan></text><text transform="rotate(183.1034482758621) translate(181.25,0) rotate(180)"><tspan x="0" y="4" style="font-family: Arial, sans-serif; font-size: 10px; fill: black; font-weight: normal; font-style: italic;">África</tspan></text><text transform="rotate(238.96551724137936) translate(181.25,0) rotate(180)"><tspan x="0" y="4" style="font-family: Arial, sans-serif; font-size: 10px; fill: black; font-weight: normal; font-style: italic;">Asia</tspan></text><text transform="rotate(-83.79310344827586) translate(253.75,0) rotate(0)"><tspan x="0" y="4" style="font-family: Arial, sans-serif; font-size: 10px; fill: black; font-weight: normal; font-style: italic;">Bolivia</tspan></text><text transform="rotate(-71.37931034482759) translate(253.75,0) rotate(0)"><tspan x="0" y="4" style="font-family: Arial, sans-serif; font-size: 10px; fill: black; font-weight: normal; font-style: italic;">Colombia</tspan></text><text transform="rotate(-58.96551724137931) translate(253.75,0) rotate(0)"><tspan x="0" y="4" style="font-family: Arial, sans-serif; font-size: 10px; fill: black; font-weight: normal; font-style: italic;">Costa Rica</tspan></text><text transform="rotate(-46.55172413793103) translate(253.75,0) rotate(0)"><tspan x="0" y="4" style="font-family: Arial, sans-serif; font-size: 10px; fill: black; font-weight: normal; font-style: italic;">Ecuador</tspan></text><text transform="rotate(-34.13793103448276) translate(253.75,0) rotate(0)"><tspan x="0" y="4" style="font-family: Arial, sans-serif; font-size: 10px; fill: black; font-weight: normal; font-style: italic;">El Salvador</tspan></text><text transform="rotate(-21.724137931034477) translate(253.75,0) rotate(0)"><tspan x="0" y="4" style="font-family: Arial, sans-serif; font-size: 10px; fill: black; font-weight: normal; font-style: italic;">Guatemala</tspan></text><text transform="rotate(-9.310344827586192) translate(253.75,0) rotate(0)"><tspan x="0" y="4" style="font-family: Arial, sans-serif; font-size: 10px; fill: black; font-weight: normal; font-style: italic;">Jamaica</tspan></text><text transform="rotate(3.1034482758620925) translate(253.75,0) rotate(0)"><tspan x="0" y="4" style="font-family: Arial, sans-serif; font-size: 10px; fill: black; font-weight: normal; font-style: italic;">Nicaragua</tspan></text><text transform="rotate(15.517241379310363) translate(253.75,0) rotate(0)"><tspan x="0" y="4" style="font-family: Arial, sans-serif; font-size: 10px; fill: black; font-weight: normal; font-style: italic;">Panamá</tspan></text><text transform="rotate(27.931034482758648) translate(253.75,0) rotate(0)"><tspan x="0" y="4" style="font-family: Arial, sans-serif; font-size: 10px; fill: black; font-weight: normal; font-style: italic;">Perú</tspan></text><text transform="rotate(40.34482758620692) translate(253.75,0) rotate(0)"><tspan x="0" y="4" style="font-family: Arial, sans-serif; font-size: 10px; fill: black; font-weight: normal; font-style: italic;">Venezuela</tspan></text><text transform="rotate(52.758620689655174) translate(253.75,0) rotate(0)"><tspan x="0" y="4" style="font-family: Arial, sans-serif; font-size: 10px; fill: black; font-weight: normal; font-style: italic;">Etiopía</tspan></text><text transform="rotate(65.17241379310346) translate(253.75,0) rotate(0)"><tspan x="0" y="4" style="font-family: Arial, sans-serif; font-size: 10px; fill: black; font-weight: normal; font-style: italic;">Kenia</tspan></text><text transform="rotate(77.58620689655174) translate(253.75,0) rotate(0)"><tspan x="0" y="4" style="font-family: Arial, sans-serif; font-size: 10px; fill: black; font-weight: normal; font-style: italic;">Mozambique</tspan></text><text transform="rotate(90.00000000000003) translate(253.75,0) rotate(180)"><tspan x="0" y="4" style="font-family: Arial, sans-serif; font-size: 10px; fill: black; font-weight: normal; font-style: italic;">Tanzania</tspan></text><text transform="rotate(102.41379310344831) translate(253.75,0) rotate(180)"><tspan x="0" y="4" style="font-family: Arial, sans-serif; font-size: 10px; fill: black; font-weight: normal; font-style: italic;">Zambia</tspan></text><text transform="rotate(114.82758620689657) translate(253.75,0) rotate(180)"><tspan x="0" y="4" style="font-family: Arial, sans-serif; font-size: 10px; fill: black; font-weight: normal; font-style: italic;">India</tspan></text><text transform="rotate(127.24137931034485) translate(253.75,0) rotate(180)"><tspan x="0" y="4" style="font-family: Arial, sans-serif; font-size: 10px; fill: black; font-weight: normal; font-style: italic;">Indonesia</tspan></text><text transform="rotate(139.6551724137931) translate(253.75,0) rotate(180)"><tspan x="0" y="4" style="font-family: Arial, sans-serif; font-size: 10px; fill: black; font-weight: normal; font-style: italic;">Yemen</tspan></text><text transform="rotate(152.06896551724134) translate(253.75,0) rotate(180)"><tspan x="0" y="4" style="font-family: Arial, sans-serif; font-size: 10px; fill: black; font-weight: normal; font-style: italic;">Brasil</tspan></text><text transform="rotate(164.48275862068968) translate(253.75,0) rotate(180)"><tspan x="0" y="4" style="font-family: Arial, sans-serif; font-size: 10px; fill: black; font-weight: normal; font-style: italic;">Angola</tspan></text><text transform="rotate(176.8965517241379) translate(253.75,0) rotate(180)"><tspan x="0" y="4" style="font-family: Arial, sans-serif; font-size: 10px; fill: black; font-weight: normal; font-style: italic;">Camerún</tspan></text><text transform="rotate(189.31034482758628) translate(253.75,0) rotate(180)"><tspan x="0" y="4" style="font-family: Arial, sans-serif; font-size: 10px; fill: black; font-weight: normal; font-style: italic;">Costa de Marfil</tspan></text><text transform="rotate(201.72413793103448) translate(253.75,0) rotate(180)"><tspan x="0" y="4" style="font-family: Arial, sans-serif; font-size: 10px; fill: black; font-weight: normal; font-style: italic;">Uganda</tspan></text><text transform="rotate(214.1379310344828) translate(253.75,0) rotate(180)"><tspan x="0" y="4" style="font-family: Arial, sans-serif; font-size: 10px; fill: black; font-weight: normal; font-style: italic;">India</tspan></text><text transform="rotate(226.55172413793105) translate(253.75,0) rotate(180)"><tspan x="0" y="4" style="font-family: Arial, sans-serif; font-size: 10px; fill: black; font-weight: normal; font-style: italic;">Java</tspan></text><text transform="rotate(238.96551724137936) translate(253.75,0) rotate(180)"><tspan x="0" y="4" style="font-family: Arial, sans-serif; font-size: 10px; fill: black; font-weight: normal; font-style: italic;">Sri Lanka</tspan></text><text transform="rotate(251.37931034482762) translate(253.75,0) rotate(180)"><tspan x="0" y="4" style="font-family: Arial, sans-serif; font-size: 10px; fill: black; font-weight: normal; font-style: italic;">Sumatra</tspan></text><text transform="rotate(263.79310344827593) translate(253.75,0) rotate(180)"><tspan x="0" y="4" style="font-family: Arial, sans-serif; font-size: 10px; fill: black; font-weight: normal; font-style: italic;">Vietnam</tspan></text></g></svg>